<svg height="512" viewBox="0 0 128 128" width="512" xmlns="http://www.w3.org/2000/svg"><g><g fill="#fedb41"><path d="m58.978 32.521a31.883 31.883 0 0 1 10.044 0l.727-8.736a34.322 34.322 0 0 0 -5.749-22.038 34.322 34.322 0 0 0 -5.749 22.038z"/><path d="m58.978 32.521a31.883 31.883 0 0 1 10.044 0l.727-8.736a34.322 34.322 0 0 0 -5.749-22.038 34.322 34.322 0 0 0 -5.749 22.038z"/><path d="m48.515 36.137a31.98 31.98 0 0 1 9.439-3.437l-2.3-8.457a34.324 34.324 0 0 0 -12.945-18.743 34.32 34.32 0 0 0 2.135 22.675z"/><path d="m48.515 36.137a31.98 31.98 0 0 1 9.439-3.437l-2.3-8.457a34.324 34.324 0 0 0 -12.945-18.743 34.32 34.32 0 0 0 2.135 22.675z"/><path d="m39.92 43.113a31.957 31.957 0 0 1 7.7-6.456l-5.064-7.157a34.315 34.315 0 0 0 -18.57-13.187 34.323 34.323 0 0 0 9.762 20.577z"/><path d="m39.92 43.113a31.957 31.957 0 0 1 7.7-6.456l-5.064-7.157a34.315 34.315 0 0 0 -18.57-13.187 34.323 34.323 0 0 0 9.762 20.577z"/><path d="m34.23 52.608a31.953 31.953 0 0 1 5.022-8.7l-7.2-5a34.322 34.322 0 0 0 -21.96-6.04 34.323 34.323 0 0 0 16.211 16z"/><path d="m34.23 52.608a31.953 31.953 0 0 1 5.022-8.7l-7.2-5a34.322 34.322 0 0 0 -21.96-6.04 34.323 34.323 0 0 0 16.211 16z"/><path d="m32.13 63.477a31.963 31.963 0 0 1 1.744-9.892l-8.474-2.232a34.319 34.319 0 0 0 -22.7 1.835 34.321 34.321 0 0 0 20.7 9.488z"/><path d="m32.13 63.477a31.963 31.963 0 0 1 1.744-9.892l-8.474-2.232a34.319 34.319 0 0 0 -22.7 1.835 34.321 34.321 0 0 0 20.7 9.488z"/><path d="m33.874 74.409a31.963 31.963 0 0 1 -1.744-9.892l-8.729.8a34.316 34.316 0 0 0 -20.701 9.49 34.319 34.319 0 0 0 22.7 1.834z"/><path d="m33.874 74.409a31.963 31.963 0 0 1 -1.744-9.892l-8.729.8a34.316 34.316 0 0 0 -20.701 9.49 34.319 34.319 0 0 0 22.7 1.834z"/><path d="m39.252 84.085a31.953 31.953 0 0 1 -5.022-8.7l-7.93 3.739a34.323 34.323 0 0 0 -16.211 16 34.322 34.322 0 0 0 21.96-6.04z"/><path d="m39.252 84.085a31.953 31.953 0 0 1 -5.022-8.7l-7.93 3.739a34.323 34.323 0 0 0 -16.211 16 34.322 34.322 0 0 0 21.96-6.04z"/><path d="m47.615 91.337a31.9 31.9 0 0 1 -7.695-6.456l-6.172 6.225a34.323 34.323 0 0 0 -9.762 20.577 34.319 34.319 0 0 0 18.57-13.183z"/><path d="m47.615 91.337a31.9 31.9 0 0 1 -7.695-6.456l-6.172 6.225a34.323 34.323 0 0 0 -9.762 20.577 34.319 34.319 0 0 0 18.57-13.183z"/><path d="m57.954 95.293a31.98 31.98 0 0 1 -9.439-3.436l-3.671 7.961a34.32 34.32 0 0 0 -2.135 22.675 34.324 34.324 0 0 0 12.94-18.743z"/><path d="m57.954 95.293a31.98 31.98 0 0 1 -9.439-3.436l-3.671 7.961a34.32 34.32 0 0 0 -2.135 22.675 34.324 34.324 0 0 0 12.94-18.743z"/><path d="m69.022 95.473a31.883 31.883 0 0 1 -10.044 0l-.727 8.736a34.32 34.32 0 0 0 5.749 22.038 34.32 34.32 0 0 0 5.749-22.038z"/><path d="m69.022 95.473a31.883 31.883 0 0 1 -10.044 0l-.727 8.736a34.32 34.32 0 0 0 5.749 22.038 34.32 34.32 0 0 0 5.749-22.038z"/><path d="m79.485 91.857a31.98 31.98 0 0 1 -9.439 3.436l2.3 8.457a34.324 34.324 0 0 0 12.94 18.743 34.327 34.327 0 0 0 -2.135-22.675z"/><path d="m79.485 91.857a31.98 31.98 0 0 1 -9.439 3.436l2.3 8.457a34.324 34.324 0 0 0 12.94 18.743 34.327 34.327 0 0 0 -2.135-22.675z"/><path d="m88.08 84.881a31.9 31.9 0 0 1 -7.695 6.456l5.059 7.16a34.32 34.32 0 0 0 18.569 13.186 34.316 34.316 0 0 0 -9.761-20.577z"/><path d="m88.08 84.881a31.9 31.9 0 0 1 -7.695 6.456l5.059 7.16a34.32 34.32 0 0 0 18.569 13.186 34.316 34.316 0 0 0 -9.761-20.577z"/><path d="m93.77 75.386a31.953 31.953 0 0 1 -5.022 8.7l7.2 5a34.322 34.322 0 0 0 21.96 6.04 34.323 34.323 0 0 0 -16.211-16z"/><path d="m93.77 75.386a31.953 31.953 0 0 1 -5.022 8.7l7.2 5a34.322 34.322 0 0 0 21.96 6.04 34.323 34.323 0 0 0 -16.211-16z"/><path d="m95.87 64.517a31.963 31.963 0 0 1 -1.744 9.892l8.477 2.232a34.32 34.32 0 0 0 22.7-1.834 34.316 34.316 0 0 0 -20.7-9.489z"/><path d="m95.87 64.517a31.963 31.963 0 0 1 -1.744 9.892l8.477 2.232a34.32 34.32 0 0 0 22.7-1.834 34.316 34.316 0 0 0 -20.7-9.489z"/><path d="m94.126 53.585a31.963 31.963 0 0 1 1.744 9.892l8.729-.8a34.321 34.321 0 0 0 20.701-9.489 34.32 34.32 0 0 0 -22.7-1.835z"/><path d="m94.126 53.585a31.963 31.963 0 0 1 1.744 9.892l8.729-.8a34.321 34.321 0 0 0 20.701-9.489 34.32 34.32 0 0 0 -22.7-1.835z"/><path d="m88.748 43.909a31.953 31.953 0 0 1 5.022 8.7l7.93-3.739a34.323 34.323 0 0 0 16.211-16 34.322 34.322 0 0 0 -21.96 6.04z"/><path d="m88.748 43.909a31.953 31.953 0 0 1 5.022 8.7l7.93-3.739a34.323 34.323 0 0 0 16.211-16 34.322 34.322 0 0 0 -21.96 6.04z"/><path d="m80.385 36.657a31.957 31.957 0 0 1 7.695 6.456l6.172-6.225a34.316 34.316 0 0 0 9.761-20.577 34.316 34.316 0 0 0 -18.569 13.189z"/><path d="m80.385 36.657a31.957 31.957 0 0 1 7.695 6.456l6.172-6.225a34.316 34.316 0 0 0 9.761-20.577 34.316 34.316 0 0 0 -18.569 13.189z"/><path d="m70.046 32.7a31.98 31.98 0 0 1 9.439 3.436l3.671-7.961a34.327 34.327 0 0 0 2.135-22.675 34.324 34.324 0 0 0 -12.94 18.743z"/><path d="m70.046 32.7a31.98 31.98 0 0 1 9.439 3.436l3.671-7.961a34.327 34.327 0 0 0 2.135-22.675 34.324 34.324 0 0 0 -12.94 18.743z"/></g><circle cx="64" cy="63.997" fill="#c27b48" r="31.873"/><circle cx="64" cy="63.997" fill="#fedb41" r="23.874"/><g fill="#fea832"><path d="m48.454 62.84 14.386-14.386a1.75 1.75 0 1 0 -2.475-2.474l-14.386 14.386a1.75 1.75 0 1 0 2.475 2.474z"/><path d="m70.783 47.627a1.748 1.748 0 0 0 -2.474 0l-20.683 20.682a1.75 1.75 0 0 0 2.474 2.475l20.683-20.684a1.748 1.748 0 0 0 0-2.473z"/><path d="m76.462 51.538a1.751 1.751 0 0 0 -2.475 0l-22.449 22.449a1.75 1.75 0 1 0 2.475 2.475l22.449-22.449a1.751 1.751 0 0 0 0-2.475z"/><path d="m80.374 57.216a1.751 1.751 0 0 0 -2.475 0l-20.682 20.684a1.749 1.749 0 1 0 2.474 2.474l20.683-20.683a1.749 1.749 0 0 0 0-2.475z"/><path d="m82.02 65.16a1.748 1.748 0 0 0 -2.474 0l-14.386 14.386a1.75 1.75 0 1 0 2.475 2.474l14.385-14.386a1.748 1.748 0 0 0 0-2.474z"/></g></g></svg>